<svg width="391" height="221" viewBox="0 0 391 221" fill="none" xmlns="http://www.w3.org/2000/svg">
<path d="M28 6.50476V149.887" stroke="#4563CC" stroke-width="0.25" stroke-miterlimit="10"/>
<path d="M28 6.50475L167.691 -118.992" stroke="#4563CC" stroke-width="0.25" stroke-miterlimit="10"/>
<path d="M24.5199 108.311L24.1391 120.085" stroke="#4563CC" stroke-width="0.42" stroke-miterlimit="10"/>
<path d="M28.476 108.349L28.5607 120.133" stroke="#4563CC" stroke-width="0.42" stroke-miterlimit="10"/>
<path d="M32.4321 108.263L32.9716 120.038" stroke="#4563CC" stroke-width="0.42" stroke-miterlimit="10"/>
<path d="M36.3882 108.054L37.3826 119.809" stroke="#4563CC" stroke-width="0.42" stroke-miterlimit="10"/>
<path d="M40.3232 107.731L41.7724 119.439" stroke="#4563CC" stroke-width="0.42" stroke-miterlimit="10"/>
<path d="M44.2476 107.275L46.1516 118.935" stroke="#4563CC" stroke-width="0.42" stroke-miterlimit="10"/>
<path d="M48.1614 106.695L50.5097 118.289" stroke="#4563CC" stroke-width="0.42" stroke-miterlimit="10"/>
<path d="M52.0328 106.002L54.836 117.51" stroke="#4563CC" stroke-width="0.42" stroke-miterlimit="10"/>
<path d="M55.8832 105.175L59.1306 116.588" stroke="#4563CC" stroke-width="0.42" stroke-miterlimit="10"/>
<path d="M59.7018 104.234L63.3935 115.543" stroke="#4563CC" stroke-width="0.42" stroke-miterlimit="10"/>
<path d="M63.4781 103.179L67.6035 114.364" stroke="#4563CC" stroke-width="0.42" stroke-miterlimit="10"/>
<path d="M67.2121 102.001L71.7711 113.043" stroke="#4563CC" stroke-width="0.42" stroke-miterlimit="10"/>
<path d="M70.9038 100.708L75.886 111.608" stroke="#4563CC" stroke-width="0.42" stroke-miterlimit="10"/>
<path d="M74.532 99.3019L79.9372 110.031" stroke="#4563CC" stroke-width="0.42" stroke-miterlimit="10"/>
<path d="M78.1073 97.7719L83.9251 108.339" stroke="#4563CC" stroke-width="0.42" stroke-miterlimit="10"/>
<path d="M81.6296 96.1469L87.8494 106.515" stroke="#4563CC" stroke-width="0.42" stroke-miterlimit="10"/>
<path d="M85.0781 94.3983L91.6998 104.567" stroke="#4563CC" stroke-width="0.42" stroke-miterlimit="10"/>
<path d="M88.4524 92.5548L95.4655 102.504" stroke="#4563CC" stroke-width="0.42" stroke-miterlimit="10"/>
<path d="M91.7633 90.5971L99.1572 100.328" stroke="#4563CC" stroke-width="0.42" stroke-miterlimit="10"/>
<path d="M94.9895 88.5445L102.764 98.0285" stroke="#4563CC" stroke-width="0.42" stroke-miterlimit="10"/>
<path d="M98.1311 86.3873L106.265 95.6242" stroke="#4563CC" stroke-width="0.42" stroke-miterlimit="10"/>
<path d="M101.199 84.135L109.682 93.1154" stroke="#4563CC" stroke-width="0.42" stroke-miterlimit="10"/>
<path d="M104.171 81.7878L113.004 90.4926" stroke="#4563CC" stroke-width="0.42" stroke-miterlimit="10"/>
<path d="M107.048 79.3456L116.209 87.7747" stroke="#4563CC" stroke-width="0.42" stroke-miterlimit="10"/>
<path d="M109.83 76.8177L119.308 84.9523" stroke="#4563CC" stroke-width="0.42" stroke-miterlimit="10"/>
<path d="M112.506 74.2044L122.302 82.0349" stroke="#4563CC" stroke-width="0.42" stroke-miterlimit="10"/>
<path d="M115.087 71.5055L125.179 79.0224" stroke="#4563CC" stroke-width="0.42" stroke-miterlimit="10"/>
<path d="M117.563 68.7307L127.939 75.9245" stroke="#4563CC" stroke-width="0.42" stroke-miterlimit="10"/>
<path d="M119.922 65.8797L130.573 72.7409" stroke="#4563CC" stroke-width="0.42" stroke-miterlimit="10"/>
<path d="M122.175 62.9528L133.091 69.4814" stroke="#4563CC" stroke-width="0.42" stroke-miterlimit="10"/>
<path d="M23.4304 156.947L22.8698 174.357" stroke="#4563CC" stroke-width="0.25" stroke-miterlimit="10"/>
<path d="M29.2799 157.014L29.3962 174.423" stroke="#4563CC" stroke-width="0.25" stroke-miterlimit="10"/>
<path d="M35.1189 156.89L35.9122 174.281" stroke="#4563CC" stroke-width="0.25" stroke-miterlimit="10"/>
<path d="M40.9579 156.577L42.4282 173.939" stroke="#4563CC" stroke-width="0.25" stroke-miterlimit="10"/>
<path d="M46.7863 156.092L48.923 173.397" stroke="#4563CC" stroke-width="0.25" stroke-miterlimit="10"/>
<path d="M52.5829 155.417L55.3966 172.646" stroke="#4563CC" stroke-width="0.25" stroke-miterlimit="10"/>
<path d="M58.3584 154.572L61.8279 171.696" stroke="#4563CC" stroke-width="0.25" stroke-miterlimit="10"/>
<path d="M64.0916 153.536L68.2276 170.546" stroke="#4563CC" stroke-width="0.25" stroke-miterlimit="10"/>
<path d="M69.7719 152.319L74.5743 169.187" stroke="#4563CC" stroke-width="0.25" stroke-miterlimit="10"/>
<path d="M75.4205 150.932L80.8681 167.638" stroke="#4563CC" stroke-width="0.25" stroke-miterlimit="10"/>
<path d="M80.995 149.364L87.0984 165.89" stroke="#4563CC" stroke-width="0.25" stroke-miterlimit="10"/>
<path d="M86.5167 147.625L93.2547 163.951" stroke="#4563CC" stroke-width="0.25" stroke-miterlimit="10"/>
<path d="M91.9643 145.715L99.3265 161.822" stroke="#4563CC" stroke-width="0.25" stroke-miterlimit="10"/>
<path d="M97.3271 143.634L105.324 159.494" stroke="#4563CC" stroke-width="0.25" stroke-miterlimit="10"/>
<path d="M102.616 141.391L111.216 156.985" stroke="#4563CC" stroke-width="0.25" stroke-miterlimit="10"/>
<path d="M107.81 138.977L117.013 154.296" stroke="#4563CC" stroke-width="0.25" stroke-miterlimit="10"/>
<path d="M112.908 136.402L122.704 151.426" stroke="#4563CC" stroke-width="0.25" stroke-miterlimit="10"/>
<path d="M117.901 133.665L128.267 148.376" stroke="#4563CC" stroke-width="0.25" stroke-miterlimit="10"/>
<path d="M122.788 130.776L133.726 145.154" stroke="#4563CC" stroke-width="0.25" stroke-miterlimit="10"/>
<path d="M127.559 127.745L139.046 141.761" stroke="#4563CC" stroke-width="0.25" stroke-miterlimit="10"/>
<path d="M132.213 124.551L144.229 138.207" stroke="#4563CC" stroke-width="0.25" stroke-miterlimit="10"/>
<path d="M136.73 121.225L149.275 134.492" stroke="#4563CC" stroke-width="0.25" stroke-miterlimit="10"/>
<path d="M141.12 117.757L154.173 130.624" stroke="#4563CC" stroke-width="0.25" stroke-miterlimit="10"/>
<path d="M145.372 114.146L158.922 126.604" stroke="#4563CC" stroke-width="0.25" stroke-miterlimit="10"/>
<path d="M149.487 110.411L163.502 122.432" stroke="#4563CC" stroke-width="0.25" stroke-miterlimit="10"/>
<path d="M153.453 106.543L167.924 118.118" stroke="#4563CC" stroke-width="0.25" stroke-miterlimit="10"/>
<path d="M157.261 102.561L172.176 113.671" stroke="#4563CC" stroke-width="0.25" stroke-miterlimit="10"/>
<path d="M160.911 98.4561L176.259 109.1" stroke="#4563CC" stroke-width="0.25" stroke-miterlimit="10"/>
<path d="M164.401 94.2463L180.152 104.396" stroke="#4563CC" stroke-width="0.25" stroke-miterlimit="10"/>
<path d="M167.733 89.9224L183.865 99.5775" stroke="#4563CC" stroke-width="0.25" stroke-miterlimit="10"/>
<path d="M28.0001 95.6337C82.792 95.6337 127.21 55.7293 127.21 6.50473C127.21 -42.7199 82.792 -82.6243 28.0001 -82.6243C-26.7919 -82.6243 -71.2096 -42.7199 -71.2096 6.50473C-71.2096 55.7293 -26.7919 95.6337 28.0001 95.6337Z" stroke="#4563CC" stroke-width="0.25" stroke-miterlimit="10"/>
<path d="M28.0001 219.895C159.182 219.895 265.526 124.357 265.526 6.50475C265.526 -111.348 159.182 -206.886 28.0001 -206.886C-103.182 -206.886 -209.526 -111.348 -209.526 6.50475C-209.526 124.357 -103.182 219.895 28.0001 219.895Z" stroke="#4563CC" stroke-width="0.23" stroke-miterlimit="10"/>
<path d="M104.816 85.5985C93.2538 94.6618 79.8173 101.59 65.2741 105.988C50.7309 110.386 35.3659 112.167 20.0565 111.23C4.747 110.293 -10.2071 106.656 -23.9518 100.526C-37.6965 94.3966 -49.9627 85.8948 -60.05 75.5063" stroke="#4563CC" stroke-miterlimit="10"/>
<path d="M140.834 6.50476C140.834 33.3895 128.946 59.173 107.786 78.1834C86.6251 97.1938 57.9254 107.874 28 107.874" stroke="#4563CC" stroke-miterlimit="10"/>
<path d="M-84.8339 6.50473C-84.8367 -15.2075 -77.0804 -36.3469 -62.7067 -53.8017C-48.333 -71.2564 -28.1013 -84.1043 -4.98994 -90.4538C18.1214 -96.8034 42.8913 -96.3193 65.6734 -89.0726C88.4555 -81.826 108.046 -68.1998 121.561 -50.1999" stroke="#4563CC" stroke-miterlimit="10"/>
<path d="M133.091 6.50472C133.091 25.1778 126.927 43.4315 115.38 58.9576C103.832 74.4837 87.4194 86.5848 68.2166 93.7307C49.0137 100.877 27.8834 102.746 7.49779 99.1033C-12.8878 95.4604 -31.6133 86.4684 -46.3105 73.2646C-61.0077 60.0607 -71.0166 43.238 -75.0716 24.9237C-79.1266 6.60946 -77.0454 -12.3738 -69.0913 -29.6254C-61.1372 -46.8771 -47.6675 -61.6224 -30.3854 -71.9966C-13.1033 -82.3708 7.215 -87.908 28 -87.908" stroke="#4563CC" stroke-miterlimit="10"/>
<path d="M133.091 6.49522H148.852L235.262 -71.1256H368.522" stroke="#4563CC" stroke-width="0.5" stroke-miterlimit="10"/>
<path d="M133.091 12.9288H160.879L198.959 -21.2822H304.378" stroke="#4563CC" stroke-width="0.5" stroke-miterlimit="10"/>
<path d="M132.118 19.3243H142.04L171.023 45.3531H289.548" stroke="#4563CC" stroke-width="0.5" stroke-miterlimit="10"/>
<path d="M131.409 23.3821H135.894L184.922 67.4382H325.089" stroke="#4563CC" stroke-width="0.5" stroke-miterlimit="10"/>
<path d="M132.848 0.0807042H146.578L237.304 -81.4174H289.548" stroke="#4563CC" stroke-width="0.5" stroke-miterlimit="10"/>
<path d="M133.091 15.2096H176.777L192.813 0.812439H375.599" stroke="#4563CC" stroke-width="0.5" stroke-miterlimit="10"/>
<path d="M220.601 45.3532L237.378 30.2814H353.152" stroke="#4563CC" stroke-width="0.5" stroke-miterlimit="10"/>
<path d="M233.242 34.0065H319.748" stroke="#4563CC" stroke-width="0.5" stroke-miterlimit="10"/>
<path d="M237.441 45.4102L243.079 50.4753H338.449" stroke="#4563CC" stroke-width="0.5" stroke-miterlimit="10"/>
<path d="M199.224 45.4102L215.027 59.5982H388.959" stroke="#4563CC" stroke-width="0.5" stroke-miterlimit="10"/>
<path d="M199.224 67.4382L228.757 93.9612H353.153" stroke="#4563CC" stroke-width="0.5" stroke-miterlimit="10"/>
<path d="M192.285 67.4382L211.822 84.9903H271.65" stroke="#4563CC" stroke-width="0.5" stroke-miterlimit="10"/>
<path d="M169.965 53.9915H262.162" stroke="#4563CC" stroke-width="0.5" stroke-miterlimit="10"/>
<path d="M374.996 0.812411C374.996 1.02668 375.066 1.23614 375.199 1.4143C375.331 1.59245 375.52 1.7313 375.74 1.81329C375.96 1.89529 376.203 1.91675 376.437 1.87495C376.671 1.83315 376.886 1.72997 377.054 1.57846C377.223 1.42695 377.338 1.23392 377.384 1.02377C377.431 0.813621 377.407 0.595798 377.316 0.397842C377.224 0.199886 377.07 0.0306947 376.871 -0.0883449C376.673 -0.207385 376.44 -0.270935 376.201 -0.270935C375.882 -0.270935 375.575 -0.156788 375.349 0.0463791C375.123 0.249546 374.996 0.525089 374.996 0.812411Z" fill="#4563CC"/>
<path d="M352.613 30.2814C352.611 30.496 352.68 30.7064 352.811 30.8858C352.942 31.0652 353.13 31.2055 353.35 31.289C353.57 31.3724 353.813 31.3953 354.048 31.3545C354.282 31.3138 354.498 31.2114 354.668 31.0603C354.837 30.9092 354.953 30.7161 355.001 30.5057C355.048 30.2953 355.025 30.077 354.934 29.8785C354.843 29.68 354.688 29.5102 354.49 29.3908C354.291 29.2713 354.058 29.2075 353.819 29.2075C353.501 29.2075 353.196 29.3203 352.97 29.5215C352.744 29.7226 352.616 29.9957 352.613 30.2814Z" fill="#4563CC"/>
<path d="M319.208 34.0066C319.208 34.2208 319.279 34.4303 319.411 34.6084C319.544 34.7866 319.732 34.9254 319.953 35.0074C320.173 35.0894 320.415 35.1109 320.649 35.0691C320.883 35.0273 321.098 34.9241 321.267 34.7726C321.435 34.6211 321.55 34.4281 321.597 34.2179C321.643 34.0078 321.619 33.7899 321.528 33.592C321.437 33.394 321.282 33.2248 321.084 33.1058C320.886 32.9868 320.652 32.9232 320.414 32.9232C320.094 32.9232 319.787 33.0374 319.561 33.2405C319.335 33.4437 319.208 33.7192 319.208 34.0066Z" fill="#4563CC"/>
<path d="M338.058 50.4753C338.056 50.6904 338.125 50.9011 338.257 51.0807C338.388 51.2603 338.577 51.4007 338.797 51.4838C339.018 51.567 339.261 51.5893 339.496 51.5478C339.731 51.5063 339.947 51.4029 340.116 51.2508C340.286 51.0988 340.401 50.9048 340.447 50.6938C340.493 50.4828 340.468 50.2642 340.376 50.0658C340.283 49.8675 340.127 49.6984 339.927 49.5801C339.727 49.4618 339.492 49.3996 339.253 49.4015C338.936 49.4015 338.632 49.5146 338.408 49.716C338.184 49.9174 338.058 50.1905 338.058 50.4753Z" fill="#4563CC"/>
<path d="M288.744 45.3532C288.742 45.5678 288.811 45.7782 288.942 45.9576C289.073 46.137 289.261 46.2774 289.481 46.3608C289.701 46.4443 289.944 46.4671 290.179 46.4264C290.413 46.3856 290.629 46.2832 290.799 46.1321C290.968 45.981 291.084 45.788 291.132 45.5776C291.179 45.3672 291.156 45.1488 291.065 44.9503C290.974 44.7518 290.819 44.5821 290.621 44.4626C290.422 44.3431 290.189 44.2794 289.95 44.2794C289.632 44.2793 289.327 44.3922 289.101 44.5933C288.875 44.7944 288.747 45.0675 288.744 45.3532Z" fill="#4563CC"/>
<path d="M388.588 59.5982C388.586 59.8129 388.655 60.0233 388.786 60.2027C388.918 60.3821 389.105 60.5224 389.325 60.6058C389.545 60.6893 389.788 60.7121 390.023 60.6714C390.257 60.6307 390.473 60.5283 390.643 60.3771C390.813 60.226 390.929 60.033 390.976 59.8226C391.023 59.6122 391 59.3939 390.909 59.1954C390.818 58.9969 390.664 58.8271 390.465 58.7076C390.267 58.5882 390.033 58.5244 389.794 58.5244C389.476 58.5244 389.171 58.6372 388.945 58.8383C388.719 59.0394 388.591 59.3126 388.588 59.5982Z" fill="#4563CC"/>
<path d="M324.73 67.4382C324.73 67.6529 324.801 67.8627 324.934 68.0411C325.067 68.2194 325.256 68.3583 325.477 68.44C325.698 68.5217 325.941 68.5426 326.175 68.5C326.409 68.4574 326.624 68.3533 326.792 68.2008C326.96 68.0484 327.074 67.8544 327.12 67.6437C327.165 67.4329 327.14 67.2148 327.047 67.017C326.954 66.8192 326.798 66.6507 326.598 66.5328C326.398 66.4149 326.164 66.353 325.925 66.3549C325.607 66.3574 325.303 66.4726 325.079 66.6755C324.855 66.8784 324.73 67.1525 324.73 67.4382Z" fill="#4563CC"/>
<path d="M271.216 84.9904C271.214 85.205 271.283 85.4154 271.414 85.5948C271.546 85.7742 271.733 85.9145 271.953 85.998C272.174 86.0814 272.416 86.1043 272.651 86.0635C272.886 86.0228 273.101 85.9204 273.271 85.7693C273.441 85.6181 273.557 85.4251 273.604 85.2147C273.652 85.0043 273.628 84.786 273.537 84.5875C273.446 84.389 273.292 84.2192 273.093 84.0998C272.895 83.9803 272.661 83.9165 272.422 83.9165C272.104 83.9165 271.799 84.0293 271.573 84.2304C271.348 84.4316 271.219 84.7047 271.216 84.9904Z" fill="#4563CC"/>
<path d="M261.495 53.9914C261.496 54.2077 261.568 54.4189 261.703 54.5979C261.838 54.777 262.029 54.9156 262.253 54.996C262.476 55.0765 262.721 55.095 262.957 55.0492C263.192 55.0034 263.406 54.8954 263.573 54.7391C263.739 54.5828 263.85 54.3853 263.89 54.1722C263.93 53.959 263.899 53.7398 263.799 53.5429C263.7 53.3459 263.537 53.1803 263.332 53.0671C263.127 52.954 262.889 52.8986 262.648 52.9081C262.338 52.9203 262.044 53.0399 261.83 53.2417C261.615 53.4436 261.495 53.7122 261.495 53.9914Z" fill="#4563CC"/>
<path d="M353.925 95.0446C354.591 95.0446 355.13 94.5595 355.13 93.9612C355.13 93.3629 354.591 92.8779 353.925 92.8779C353.259 92.8779 352.719 93.3629 352.719 93.9612C352.719 94.5595 353.259 95.0446 353.925 95.0446Z" fill="#4563CC"/>
<path d="M189.46 12.2636L212.858 12.2636V9.45069L189.46 9.45069V12.2636Z" stroke="#4563CC" stroke-width="0.25" stroke-miterlimit="10"/>
<path d="M213.546 12.2636H214.223V9.45069H213.546V12.2636Z" fill="#4563CC"/>
<path d="M214.773 12.2636H215.45V9.45069H214.773V12.2636Z" fill="#4563CC"/>
<path d="M216 12.2636H216.677V9.45069H216V12.2636Z" fill="#4563CC"/>
<path d="M217.227 12.2636H217.904V9.45069H217.227V12.2636Z" fill="#4563CC"/>
<path d="M218.465 12.2636H219.142V9.45069H218.465V12.2636Z" fill="#4563CC"/>
<path d="M219.692 12.2636H220.369V9.45069H219.692V12.2636Z" fill="#4563CC"/>
<path d="M220.919 12.2636H221.596V9.45069H220.919V12.2636Z" fill="#4563CC"/>
<path d="M222.146 12.2636H222.823V9.45069H222.146V12.2636Z" fill="#4563CC"/>
<path d="M262.204 73.8433H285.602V71.0304H262.204V73.8433Z" stroke="#4563CC" stroke-width="0.25" stroke-miterlimit="10"/>
<path d="M286.29 73.8433H286.967V71.0304H286.29V73.8433Z" fill="#4563CC"/>
<path d="M287.517 73.8433H288.194V71.0304H287.517V73.8433Z" fill="#4563CC"/>
<path d="M288.744 73.8433H289.421V71.0304H288.744V73.8433Z" fill="#4563CC"/>
<path d="M289.971 73.8433H290.648V71.0304H289.971V73.8433Z" fill="#4563CC"/>
<path d="M291.187 73.8433H291.864V71.0304H291.187V73.8433Z" fill="#4563CC"/>
<path d="M292.414 73.8433H293.091V71.0304H292.414V73.8433Z" fill="#4563CC"/>
<path d="M293.652 73.8433H294.329V71.0304H293.652V73.8433Z" fill="#4563CC"/>
<path d="M294.879 73.8433H295.556V71.0304H294.879V73.8433Z" fill="#4563CC"/>
<path d="M127.157 73.8433H150.555V71.0304H127.157V73.8433Z" stroke="#4563CC" stroke-width="0.25" stroke-miterlimit="10"/>
<path d="M151.243 73.8433H151.919V71.0304H151.243V73.8433Z" fill="#4563CC"/>
<path d="M152.469 73.8433H153.146V71.0304H152.469V73.8433Z" fill="#4563CC"/>
<path d="M153.697 73.8433H154.374V71.0304H153.697V73.8433Z" fill="#4563CC"/>
<path d="M154.924 73.8433H155.601V71.0304H154.924V73.8433Z" fill="#4563CC"/>
<path d="M156.151 73.8433H156.828V71.0304H156.151V73.8433Z" fill="#4563CC"/>
<path d="M157.378 73.8433H158.055V71.0304H157.378V73.8433Z" fill="#4563CC"/>
<path d="M158.594 73.8433H159.271V71.0304H158.594V73.8433Z" fill="#4563CC"/>
<path d="M159.832 73.8433H160.509V71.0304H159.832V73.8433Z" fill="#4563CC"/>
<path d="M267.884 24.418L270.529 22.7454L267.884 21.0824V24.418Z" fill="#4563CC"/>
<path d="M270.529 24.418L273.163 22.7454L270.529 21.0824V24.418Z" fill="#4563CC"/>
<path d="M273.163 24.418L275.807 22.7454L273.163 21.0824V24.418Z" fill="#4563CC"/>
<path d="M275.807 24.418L278.441 22.7454L275.807 21.0824V24.418Z" fill="#4563CC"/>
<path d="M278.441 24.418L281.086 22.7454L278.441 21.0824V24.418Z" fill="#4563CC"/>
<path d="M281.086 24.418L283.719 22.7454L281.086 21.0824V24.418Z" fill="#4563CC"/>
<path d="M283.719 24.418L286.364 22.7454L283.719 21.0824V24.418Z" fill="#4563CC"/>
<path d="M286.364 24.418L288.998 22.7454L286.364 21.0824V24.418Z" fill="#4563CC"/>
<path d="M288.998 24.418L291.642 22.7454L288.998 21.0824V24.418Z" fill="#4563CC"/>
<path d="M291.642 24.418L294.276 22.7454L291.642 21.0824V24.418Z" fill="#4563CC"/>
<path d="M294.276 24.418L296.921 22.7454L294.276 21.0824V24.418Z" fill="#4563CC"/>
<path d="M136.275 55.7495L138.909 54.0769L136.275 52.4139V55.7495Z" fill="#4563CC"/>
<path d="M138.909 55.7495L141.553 54.0769L138.909 52.4139V55.7495Z" fill="#4563CC"/>
<path d="M141.553 55.7495L144.187 54.0769L141.553 52.4139V55.7495Z" fill="#4563CC"/>
<path d="M144.187 55.7495L146.832 54.0769L144.187 52.4139V55.7495Z" fill="#4563CC"/>
<path d="M146.832 55.7495L149.465 54.0769L146.832 52.4139V55.7495Z" fill="#4563CC"/>
<path d="M363.995 24.418L366.629 22.7454L363.995 21.0824V24.418Z" fill="#4563CC"/>
<path d="M366.629 24.418L369.273 22.7454L366.629 21.0824V24.418Z" fill="#4563CC"/>
<path d="M369.273 24.418L371.907 22.7454L369.273 21.0824V24.418Z" fill="#4563CC"/>
<path d="M371.907 24.418L374.541 22.7454L371.907 21.0824V24.418Z" fill="#4563CC"/>
<path d="M374.541 24.418L377.185 22.7454L374.541 21.0824V24.418Z" fill="#4563CC"/>
<path d="M334.059 86.6534L336.704 84.9903L334.059 83.3273V86.6534Z" fill="#4563CC"/>
<path d="M336.704 86.6534L339.338 84.9903L336.704 83.3273V86.6534Z" fill="#4563CC"/>
<path d="M339.338 86.6534L341.982 84.9903L339.338 83.3273V86.6534Z" fill="#4563CC"/>
<path d="M341.982 86.6534L344.616 84.9903L341.982 83.3273V86.6534Z" fill="#4563CC"/>
<path d="M344.616 86.6534L347.261 84.9903L344.616 83.3273V86.6534Z" fill="#4563CC"/>
<path d="M190.285 25.9575C190.283 26.0503 190.312 26.1417 190.368 26.2197C190.424 26.2977 190.505 26.3588 190.6 26.3952C190.695 26.4317 190.801 26.4417 190.902 26.424C191.004 26.4064 191.097 26.3618 191.17 26.2961C191.243 26.2304 191.293 26.1466 191.312 26.0554C191.332 25.9642 191.321 25.8698 191.28 25.7843C191.24 25.6989 191.172 25.6263 191.085 25.5758C190.998 25.5254 190.896 25.4994 190.793 25.5013C190.658 25.5013 190.529 25.5494 190.434 25.6349C190.339 25.7205 190.285 25.8365 190.285 25.9575Z" fill="#4563CC"/>
<path d="M193.543 25.9575C193.543 26.0835 193.599 26.2043 193.698 26.2934C193.797 26.3826 193.932 26.4326 194.072 26.4326C194.212 26.4326 194.347 26.3826 194.446 26.2934C194.545 26.2043 194.601 26.0835 194.601 25.9575C194.601 25.8314 194.545 25.7106 194.446 25.6215C194.347 25.5324 194.212 25.4823 194.072 25.4823C193.932 25.4823 193.797 25.5324 193.698 25.6215C193.599 25.7106 193.543 25.8314 193.543 25.9575Z" fill="#4563CC"/>
<path d="M196.812 25.9575C196.812 26.0784 196.865 26.1945 196.961 26.28C197.056 26.3656 197.185 26.4136 197.32 26.4136C197.453 26.4112 197.581 26.3623 197.676 26.2773C197.77 26.1923 197.825 26.0777 197.827 25.9575C197.827 25.8365 197.774 25.7205 197.679 25.6349C197.583 25.5494 197.454 25.5013 197.32 25.5013C197.253 25.5 197.186 25.5109 197.124 25.5334C197.061 25.5559 197.005 25.5894 196.957 25.632C196.91 25.6746 196.873 25.7255 196.848 25.7814C196.823 25.8373 196.81 25.8972 196.812 25.9575Z" fill="#4563CC"/>
<path d="M200.07 25.9575C200.073 26.0777 200.127 26.1923 200.222 26.2773C200.316 26.3623 200.444 26.4112 200.578 26.4136C200.712 26.4136 200.841 26.3656 200.937 26.28C201.032 26.1945 201.085 26.0784 201.085 25.9575C201.087 25.8972 201.075 25.8373 201.05 25.7814C201.025 25.7255 200.987 25.6746 200.94 25.632C200.892 25.5894 200.836 25.5559 200.774 25.5334C200.711 25.5109 200.645 25.5 200.578 25.5013C200.443 25.5013 200.314 25.5494 200.219 25.6349C200.123 25.7205 200.07 25.8365 200.07 25.9575Z" fill="#4563CC"/>
<path d="M203.328 25.9575C203.326 26.0503 203.355 26.1417 203.411 26.2197C203.467 26.2977 203.548 26.3588 203.643 26.3952C203.738 26.4317 203.843 26.4417 203.945 26.424C204.046 26.4064 204.139 26.3618 204.213 26.2961C204.286 26.2304 204.335 26.1466 204.355 26.0554C204.375 25.9642 204.363 25.8698 204.323 25.7843C204.282 25.6989 204.214 25.6263 204.127 25.5758C204.041 25.5254 203.939 25.4994 203.836 25.5013C203.769 25.5013 203.703 25.5131 203.641 25.536C203.58 25.559 203.524 25.5926 203.477 25.6349C203.429 25.6773 203.392 25.7276 203.367 25.7829C203.341 25.8382 203.328 25.8976 203.328 25.9575Z" fill="#4563CC"/>
<path d="M206.586 25.9575C206.586 26.0835 206.642 26.2043 206.741 26.2934C206.84 26.3826 206.974 26.4326 207.115 26.4326C207.255 26.4326 207.39 26.3826 207.489 26.2934C207.588 26.2043 207.644 26.0835 207.644 25.9575C207.644 25.8314 207.588 25.7106 207.489 25.6215C207.39 25.5324 207.255 25.4823 207.115 25.4823C206.974 25.4823 206.84 25.5324 206.741 25.6215C206.642 25.7106 206.586 25.8314 206.586 25.9575Z" fill="#4563CC"/>
<path d="M209.854 25.9575C209.854 26.0784 209.908 26.1945 210.003 26.28C210.098 26.3656 210.227 26.4136 210.362 26.4136C210.496 26.4112 210.623 26.3623 210.718 26.2773C210.813 26.1923 210.867 26.0777 210.87 25.9575C210.87 25.8976 210.857 25.8383 210.831 25.7829C210.806 25.7276 210.768 25.6773 210.721 25.6349C210.674 25.5926 210.618 25.559 210.556 25.536C210.495 25.5131 210.429 25.5013 210.362 25.5013C210.295 25.5 210.228 25.5109 210.166 25.5334C210.104 25.5559 210.047 25.5894 210 25.632C209.952 25.6746 209.915 25.7255 209.89 25.7814C209.865 25.8373 209.853 25.8972 209.854 25.9575Z" fill="#4563CC"/>
<path d="M213.112 25.9575C213.112 26.0835 213.168 26.2043 213.267 26.2934C213.367 26.3826 213.501 26.4326 213.641 26.4326C213.782 26.4326 213.916 26.3826 214.015 26.2934C214.114 26.2043 214.17 26.0835 214.17 25.9575C214.17 25.8314 214.114 25.7106 214.015 25.6215C213.916 25.5324 213.782 25.4823 213.641 25.4823C213.501 25.4823 213.367 25.5324 213.267 25.6215C213.168 25.7106 213.112 25.8314 213.112 25.9575Z" fill="#4563CC"/>
<path d="M318.69 72.893C318.97 72.893 319.198 72.6887 319.198 72.4368C319.198 72.1849 318.97 71.9807 318.69 71.9807C318.409 71.9807 318.182 72.1849 318.182 72.4368C318.182 72.6887 318.409 72.893 318.69 72.893Z" fill="#4563CC"/>
<path d="M321.948 72.893C322.228 72.893 322.455 72.6887 322.455 72.4368C322.455 72.1849 322.228 71.9807 321.948 71.9807C321.667 71.9807 321.44 72.1849 321.44 72.4368C321.44 72.6887 321.667 72.893 321.948 72.893Z" fill="#4563CC"/>
<path d="M325.216 72.893C325.497 72.893 325.724 72.6887 325.724 72.4368C325.724 72.1849 325.497 71.9807 325.216 71.9807C324.936 71.9807 324.709 72.1849 324.709 72.4368C324.709 72.6887 324.936 72.893 325.216 72.893Z" fill="#4563CC"/>
<path d="M328.474 72.893C328.755 72.893 328.982 72.6887 328.982 72.4368C328.982 72.1849 328.755 71.9807 328.474 71.9807C328.194 71.9807 327.967 72.1849 327.967 72.4368C327.967 72.6887 328.194 72.893 328.474 72.893Z" fill="#4563CC"/>
<path d="M331.732 72.893C332.013 72.893 332.24 72.6887 332.24 72.4368C332.24 72.1849 332.013 71.9807 331.732 71.9807C331.452 71.9807 331.225 72.1849 331.225 72.4368C331.225 72.6887 331.452 72.893 331.732 72.893Z" fill="#4563CC"/>
<path d="M334.99 72.893C335.271 72.893 335.498 72.6887 335.498 72.4368C335.498 72.1849 335.271 71.9807 334.99 71.9807C334.71 71.9807 334.483 72.1849 334.483 72.4368C334.483 72.6887 334.71 72.893 334.99 72.893Z" fill="#4563CC"/>
<path d="M337.751 72.4368C337.749 72.5293 337.778 72.6202 337.833 72.6981C337.889 72.7759 337.969 72.837 338.064 72.8737C338.158 72.9104 338.263 72.921 338.364 72.9042C338.465 72.8873 338.558 72.8437 338.632 72.779C338.706 72.7142 338.756 72.6313 338.777 72.5407C338.798 72.4501 338.788 72.356 338.749 72.2704C338.71 72.1848 338.644 72.1115 338.558 72.0599C338.473 72.0083 338.372 71.9807 338.269 71.9807C338.134 71.9807 338.004 72.0284 337.907 72.1137C337.81 72.199 337.754 72.315 337.751 72.4368Z" fill="#4563CC"/>
<path d="M341.009 72.4368C341.008 72.4971 341.02 72.557 341.045 72.6129C341.07 72.6688 341.107 72.7196 341.155 72.7623C341.202 72.8049 341.259 72.8384 341.321 72.8609C341.383 72.8834 341.45 72.8943 341.517 72.893C341.651 72.893 341.781 72.8449 341.876 72.7594C341.971 72.6738 342.025 72.5578 342.025 72.4368C342.022 72.3166 341.968 72.202 341.873 72.117C341.778 72.0319 341.651 71.9831 341.517 71.9807C341.382 71.9807 341.253 72.0287 341.158 72.1143C341.063 72.1998 341.009 72.3158 341.009 72.4368Z" fill="#4563CC"/>
<path d="M145.795 83.3273C145.794 83.3875 145.806 83.4474 145.831 83.5034C145.856 83.5593 145.893 83.6101 145.94 83.6527C145.988 83.6953 146.044 83.7289 146.107 83.7513C146.169 83.7738 146.236 83.7847 146.303 83.7834C146.443 83.7834 146.577 83.7334 146.677 83.6443C146.776 83.5552 146.832 83.4343 146.832 83.3083C146.832 83.1822 146.776 83.0614 146.677 82.9723C146.577 82.8832 146.443 82.8331 146.303 82.8331C146.232 82.8314 146.161 82.8433 146.096 82.8681C146.031 82.8928 145.972 82.9299 145.924 82.9767C145.876 83.0235 145.839 83.0789 145.817 83.1394C145.795 83.1999 145.787 83.264 145.795 83.3273Z" fill="#4563CC"/>
<path d="M149.053 83.3273C149.053 83.4175 149.083 83.5057 149.138 83.5807C149.194 83.6557 149.274 83.7142 149.366 83.7487C149.459 83.7832 149.561 83.7923 149.66 83.7747C149.758 83.7571 149.849 83.7136 149.92 83.6498C149.991 83.586 150.039 83.5048 150.059 83.4163C150.078 83.3278 150.068 83.2361 150.03 83.1527C149.991 83.0694 149.926 82.9981 149.843 82.948C149.759 82.8979 149.661 82.8711 149.561 82.8711C149.494 82.8698 149.427 82.8807 149.365 82.9032C149.302 82.9257 149.246 82.9592 149.198 83.0018C149.151 83.0445 149.114 83.0953 149.089 83.1512C149.064 83.2071 149.051 83.267 149.053 83.3273Z" fill="#4563CC"/>
<path d="M152.819 83.7834C153.099 83.7834 153.326 83.5792 153.326 83.3273C153.326 83.0754 153.099 82.8712 152.819 82.8712C152.538 82.8712 152.311 83.0754 152.311 83.3273C152.311 83.5792 152.538 83.7834 152.819 83.7834Z" fill="#4563CC"/>
<path d="M156.087 83.7834C156.368 83.7834 156.595 83.5792 156.595 83.3273C156.595 83.0754 156.368 82.8712 156.087 82.8712C155.807 82.8712 155.579 83.0754 155.579 83.3273C155.579 83.5792 155.807 83.7834 156.087 83.7834Z" fill="#4563CC"/>
<path d="M159.345 83.7834C159.626 83.7834 159.853 83.5792 159.853 83.3273C159.853 83.0754 159.626 82.8712 159.345 82.8712C159.065 82.8712 158.837 83.0754 158.837 83.3273C158.837 83.5792 159.065 83.7834 159.345 83.7834Z" fill="#4563CC"/>
<path d="M162.603 83.7834C162.884 83.7834 163.111 83.5792 163.111 83.3273C163.111 83.0754 162.884 82.8712 162.603 82.8712C162.323 82.8712 162.095 83.0754 162.095 83.3273C162.095 83.5792 162.323 83.7834 162.603 83.7834Z" fill="#4563CC"/>
<path d="M165.861 83.7834C166.141 83.7834 166.369 83.5792 166.369 83.3273C166.369 83.0754 166.141 82.8712 165.861 82.8712C165.581 82.8712 165.353 83.0754 165.353 83.3273C165.353 83.5792 165.581 83.7834 165.861 83.7834Z" fill="#4563CC"/>
<path d="M169.13 83.7834C169.41 83.7834 169.637 83.5792 169.637 83.3273C169.637 83.0754 169.41 82.8712 169.13 82.8712C168.849 82.8712 168.622 83.0754 168.622 83.3273C168.622 83.5792 168.849 83.7834 169.13 83.7834Z" fill="#4563CC"/>
<path d="M251.975 100.898C251.975 101.019 252.029 101.135 252.124 101.221C252.219 101.307 252.348 101.355 252.483 101.355C252.55 101.356 252.617 101.345 252.679 101.322C252.741 101.3 252.798 101.266 252.845 101.224C252.893 101.181 252.93 101.13 252.955 101.075C252.98 101.019 252.992 100.959 252.991 100.898C252.991 100.777 252.937 100.661 252.842 100.576C252.747 100.49 252.618 100.442 252.483 100.442C252.349 100.445 252.222 100.494 252.127 100.579C252.032 100.664 251.978 100.778 251.975 100.898Z" fill="#4563CC"/>
<path d="M255.244 100.898C255.244 101.024 255.3 101.145 255.399 101.234C255.498 101.324 255.633 101.374 255.773 101.374C255.913 101.374 256.048 101.324 256.147 101.234C256.246 101.145 256.302 101.024 256.302 100.898C256.302 100.772 256.246 100.652 256.147 100.562C256.048 100.473 255.913 100.423 255.773 100.423C255.633 100.423 255.498 100.473 255.399 100.562C255.3 100.652 255.244 100.772 255.244 100.898Z" fill="#4563CC"/>
<path d="M258.491 100.898C258.489 100.991 258.518 101.082 258.574 101.16C258.629 101.237 258.709 101.299 258.804 101.335C258.898 101.372 259.003 101.383 259.104 101.366C259.205 101.349 259.299 101.305 259.372 101.241C259.446 101.176 259.496 101.093 259.517 101.002C259.538 100.912 259.528 100.818 259.489 100.732C259.45 100.646 259.384 100.573 259.299 100.521C259.213 100.47 259.113 100.442 259.01 100.442C258.874 100.442 258.744 100.49 258.647 100.575C258.55 100.661 258.494 100.777 258.491 100.898Z" fill="#4563CC"/>
<path d="M261.76 100.898C261.758 100.959 261.771 101.019 261.796 101.075C261.821 101.13 261.858 101.181 261.905 101.224C261.953 101.266 262.009 101.3 262.072 101.322C262.134 101.345 262.201 101.356 262.268 101.355C262.402 101.355 262.531 101.307 262.627 101.221C262.722 101.135 262.775 101.019 262.775 100.898C262.773 100.778 262.718 100.664 262.624 100.579C262.529 100.494 262.401 100.445 262.268 100.442C262.133 100.442 262.004 100.49 261.909 100.576C261.813 100.661 261.76 100.777 261.76 100.898Z" fill="#4563CC"/>
<path d="M265.018 100.898C265.018 100.958 265.031 101.018 265.056 101.073C265.082 101.128 265.119 101.179 265.167 101.221C265.214 101.263 265.27 101.297 265.331 101.32C265.393 101.343 265.459 101.355 265.526 101.355C265.593 101.356 265.659 101.345 265.722 101.322C265.784 101.3 265.84 101.266 265.888 101.224C265.935 101.181 265.973 101.13 265.998 101.075C266.023 101.019 266.035 100.959 266.033 100.898C266.033 100.777 265.98 100.661 265.885 100.576C265.789 100.49 265.66 100.442 265.526 100.442C265.392 100.445 265.264 100.494 265.17 100.579C265.075 100.664 265.021 100.778 265.018 100.898Z" fill="#4563CC"/>
<path d="M268.276 100.898C268.276 101.024 268.332 101.145 268.431 101.234C268.53 101.324 268.664 101.374 268.805 101.374C268.945 101.374 269.079 101.324 269.179 101.234C269.278 101.145 269.334 101.024 269.334 100.898C269.334 100.772 269.278 100.652 269.179 100.562C269.079 100.473 268.945 100.423 268.805 100.423C268.664 100.423 268.53 100.473 268.431 100.562C268.332 100.652 268.276 100.772 268.276 100.898Z" fill="#4563CC"/>
<path d="M271.534 100.898C271.532 100.991 271.56 101.082 271.616 101.16C271.672 101.237 271.752 101.299 271.846 101.335C271.941 101.372 272.045 101.383 272.147 101.366C272.248 101.349 272.341 101.305 272.415 101.241C272.488 101.176 272.539 101.093 272.56 101.002C272.58 100.912 272.571 100.818 272.532 100.732C272.493 100.646 272.427 100.573 272.341 100.521C272.256 100.47 272.155 100.442 272.052 100.442C271.916 100.442 271.786 100.49 271.689 100.575C271.592 100.661 271.537 100.777 271.534 100.898Z" fill="#4563CC"/>
<path d="M274.802 100.898C274.801 100.959 274.813 101.019 274.838 101.075C274.863 101.13 274.9 101.181 274.948 101.224C274.995 101.266 275.052 101.3 275.114 101.322C275.176 101.345 275.243 101.356 275.31 101.355C275.445 101.355 275.574 101.307 275.669 101.221C275.764 101.135 275.818 101.019 275.818 100.898C275.815 100.778 275.761 100.664 275.666 100.579C275.571 100.494 275.444 100.445 275.31 100.442C275.175 100.442 275.046 100.49 274.951 100.576C274.856 100.661 274.802 100.777 274.802 100.898Z" fill="#4563CC"/>
<path d="M28 183.993C137.111 183.993 225.562 104.529 225.562 6.50473C225.562 -91.5193 137.111 -170.984 28 -170.984C-81.1107 -170.984 -169.562 -91.5193 -169.562 6.50473C-169.562 104.529 -81.1107 183.993 28 183.993Z" stroke="#4563CC" stroke-width="0.25" stroke-miterlimit="10"/>
<path d="M-191.829 6.50476C-191.829 -102.571 -93.4548 -190.997 28 -190.997" stroke="#4563CC" stroke-width="0.5" stroke-miterlimit="10"/>
<path d="M247.839 6.50476C247.839 115.571 149.465 203.997 28.0106 203.997" stroke="#4563CC" stroke-width="0.5" stroke-miterlimit="10"/>
<path d="M28.0001 149.887C116.144 149.887 187.599 85.6924 187.599 6.50478C187.599 -72.6828 116.144 -136.877 28.0001 -136.877C-60.1438 -136.877 -131.599 -72.6828 -131.599 6.50478C-131.599 85.6924 -60.1438 149.887 28.0001 149.887Z" stroke="#4563CC" stroke-width="0.25" stroke-miterlimit="10"/>
<g style="mix-blend-mode:multiply">
<path d="M28 -158.972C52.1879 -158.972 76.139 -154.691 98.4856 -146.375C120.832 -138.059 141.137 -125.87 158.24 -110.504C175.343 -95.1382 188.909 -76.8961 198.165 -56.8196C207.42 -36.7432 212.183 -15.2255 212.181 6.50471" stroke="#4563CC" stroke-width="5" stroke-miterlimit="10"/>
</g>
<path d="M194.876 128.495H256.524V127.212H194.876V128.495Z" fill="#4563CC"/>
<path d="M258.65 128.495H260.078V127.212H258.65V128.495Z" fill="#4563CC"/>
<path d="M263.114 128.495H264.542V127.212H263.114V128.495Z" fill="#4563CC"/>
<path d="M267.588 128.495H269.016V127.212H267.588V128.495Z" fill="#4563CC"/>
<path d="M272.073 128.495H273.501V127.212H272.073V128.495Z" fill="#4563CC"/>
<path d="M28.0001 38.3019C47.5473 38.3019 63.3935 24.0658 63.3935 6.50474C63.3935 -11.0564 47.5473 -25.2924 28.0001 -25.2924C8.45279 -25.2924 -7.39343 -11.0564 -7.39343 6.50474C-7.39343 24.0658 8.45279 38.3019 28.0001 38.3019Z" stroke="#4563CC" stroke-width="0.25" stroke-miterlimit="10"/>
</svg>
